<svg width="94" height="112" viewBox="0 0 94 112" fill="none" xmlns="http://www.w3.org/2000/svg">
<g clip-path="url(#clip0_44_660)">
<path d="M10.5489 0.234489C7.30883 0.750404 4.42666 2.50451 2.45813 5.14973C1.74229 6.12528 0.941693 7.7293 0.612034 8.86431C0.0657411 10.7591 0.0939976 8.55476 0.0939976 45.1095C0.0939976 82.3303 0.0469034 79.6663 0.706222 81.6549C1.32787 83.5591 2.28859 85.1162 3.72025 86.5326C5.46274 88.268 7.51604 89.3842 10.0026 89.9283C10.7467 90.0878 12.3291 90.0971 46.9998 90.0971C81.6705 90.0971 83.2529 90.0878 83.997 89.9283C86.4836 89.3842 88.5369 88.268 90.2794 86.5326C91.711 85.1162 92.6718 83.5591 93.2934 81.6549C93.9527 79.6663 93.9056 82.3303 93.9056 45.1095C93.9056 8.55476 93.9339 10.7591 93.3876 8.86431C93.2557 8.39529 92.9166 7.55107 92.6341 6.97888C90.8633 3.35811 87.416 0.844208 83.3565 0.234489C82.0661 0.0375061 11.7922 0.0468903 10.5489 0.234489ZM83.6862 5.92829C84.7599 6.29412 85.5511 6.79128 86.3706 7.59798C87.1806 8.41405 87.6798 9.202 88.0471 10.2713L88.3014 11.0218L88.3297 25.9551L88.3485 40.8978H86.088H83.8275V43.2898V45.6817H79.0239H74.2203V48.0737V50.4656H81.2844H88.3485L88.3297 64.8831L88.3014 79.3099L88.0848 79.9196C87.4066 81.7863 86.2198 83.137 84.5339 83.9531C83.1022 84.6472 84.1571 84.6097 68.3617 84.6097H54.1581L54.1393 79.8445L54.111 75.0888L51.8317 75.0606L49.5429 75.0419V79.8258V84.6097H30.498C9.2962 84.6097 10.9162 84.6566 9.46574 83.9531C7.77977 83.137 6.593 81.7863 5.91484 79.9196L5.69821 79.3099L5.66995 45.4003C5.65111 11.744 5.65111 11.4814 5.83949 10.7404C6.45171 8.30149 8.28839 6.46297 10.7373 5.82511C11.4343 5.6375 11.9523 5.6375 47.1882 5.65627L82.9327 5.67503L83.6862 5.92829Z" fill="black"/>
<path d="M51.304 10.0369C50.2303 10.3558 49.6934 11.669 50.2115 12.7384C50.7672 13.8734 52.5002 14.0422 53.3385 13.0385C54.1014 12.138 53.7906 10.7122 52.7263 10.1869C52.2271 9.94306 51.7844 9.89616 51.304 10.0369Z" fill="black"/>
<path d="M11.2555 10.5528L11.02 10.7779V22.869C11.02 34.2566 11.0294 34.9789 11.1896 35.1665L11.3497 35.3635L19.4028 35.3916L27.4559 35.4104L27.4841 38.1494L27.503 40.8978H31.4589H35.4148V33.9565V27.0151H37.7695H40.1242L40.1054 24.6419L40.0771 22.2781L37.7507 22.2499L35.4148 22.2312V16.4154V10.6091L35.2076 10.4683C35.0192 10.337 33.7288 10.3183 23.2363 10.3183H11.4815L11.2555 10.5528ZM29.5751 22.9816V29.5477H23.2645H16.9539V22.9816V16.4154H23.2645H29.5751V22.9816Z" fill="black"/>
<path d="M40.2183 14.2111V18.1039H42.573H44.9277V14.2111V10.3183H42.573H40.2183V14.2111Z" fill="black"/>
<path d="M59.1032 10.5528L58.8678 10.7779V23.3568V35.9263H56.6543H54.4409V38.4121V40.8978H59.3858H64.3307L64.3495 38.1494L64.3778 35.4104L73.693 35.3822C80.3898 35.3729 83.0459 35.3353 83.1401 35.2603C83.2437 35.1665 83.2626 33.056 83.2626 22.8784V10.6091L83.0553 10.4683C82.867 10.337 81.5766 10.3183 71.084 10.3183H59.3293L59.1032 10.5528ZM77.4229 22.9816V29.5477H71.1123H64.8016V22.9816V16.4154H71.1123H77.4229V22.9816Z" fill="black"/>
<path d="M49.6372 22.4657V27.0151H51.8977H54.1582V22.4657V17.9162H51.8977H49.6372V22.4657Z" fill="black"/>
<path d="M45.022 29.2663V31.5176H47.2825H49.543V29.2663V27.0151H47.2825H45.022V29.2663Z" fill="black"/>
<path d="M40.124 36.2546V40.8978H42.5258H44.9276V36.2546V31.6114H42.5258H40.124V36.2546Z" fill="black"/>
<path d="M71.8183 38.7591C70.7257 39.1437 70.2265 40.3725 70.7445 41.4419C71.4133 42.8114 73.4948 42.7364 74.1353 41.3199C74.7946 39.8754 73.3159 38.2338 71.8183 38.7591Z" fill="black"/>
<path d="M11.7264 38.8717C11.3685 39.0311 10.8787 39.5471 10.7468 39.8941C10.5867 40.3162 10.6244 41.0573 10.8222 41.4419C11.7452 43.2335 14.4108 42.5581 14.4108 40.532C14.4108 39.8941 13.9869 39.2375 13.3559 38.9186C12.9414 38.7122 12.1503 38.6841 11.7264 38.8717Z" fill="black"/>
<path d="M17.9899 43.2898V45.6817H14.4107H10.8315V48.0737V50.4657H16.7183H22.6051V45.6817V40.8978H20.2975H17.9899V43.2898Z" fill="black"/>
<path d="M45.0032 43.4024L44.9749 45.9163L36.2437 45.9444L27.503 45.9632V50.7002V55.4372H19.4122H11.312L11.1707 55.6436C11.0389 55.8312 11.02 57.1069 11.02 67.4439C11.02 77.7809 11.0389 79.0566 11.1707 79.2442L11.312 79.4506H23.2174C33.9078 79.4506 35.1322 79.4318 35.2641 79.3005C35.396 79.1692 35.4148 77.7246 35.4148 64.808V50.4657H37.7695H40.1242V57.7823V65.0988H42.4318H44.7395V57.7823V50.4657H51.6623H58.5852V48.2144V45.9632H54.0641H49.5431L49.5242 43.4493L49.496 40.9447L47.2637 40.9166L45.022 40.8978L45.0032 43.4024ZM29.5751 67.4439V73.6348H23.2645H16.9539V67.4439V61.2529H23.2645H29.5751V67.4439Z" fill="black"/>
<path d="M64.3775 41.0198C64.3492 41.0854 64.3398 42.1735 64.3492 43.4305L64.3775 45.7286L66.525 45.7568L68.6631 45.7755V43.3367V40.8978H66.5438C64.9144 40.8978 64.4057 40.926 64.3775 41.0198Z" fill="black"/>
<path d="M59.0463 55.5967C58.8485 55.8218 58.8485 79.066 59.0463 79.2911C59.1593 79.4412 60.12 79.4506 71.1024 79.4506C80.2575 79.4506 83.0643 79.4225 83.1491 79.338C83.3092 79.1786 83.3092 55.7092 83.1491 55.5498C83.0643 55.4653 80.2575 55.4372 71.1024 55.4372C60.12 55.4372 59.1593 55.4466 59.0463 55.5967ZM77.4224 67.4439V73.6348H71.1118H64.8012V67.4439V61.2529H71.1118H77.4224V67.4439Z" fill="black"/>
<path d="M51.3042 57.5946C49.8255 58.0355 49.5429 60.1554 50.8521 60.9903C51.2477 61.2436 51.3419 61.2623 51.9635 61.2342C52.5475 61.206 52.6888 61.1685 52.9996 60.9152C53.1974 60.7652 53.4517 60.4462 53.5742 60.2211C54.2994 58.7953 52.8678 57.1256 51.3042 57.5946Z" fill="black"/>
<path d="M44.9277 67.4908V69.7889H47.2353H49.543V67.4908V65.1926H47.2353H44.9277V67.4908Z" fill="black"/>
<path d="M40.124 74.6667V79.4506H42.4316H44.7393V74.6667V69.8828H42.4316H40.124V74.6667Z" fill="black"/>
<path d="M5.16129 98.258C4.85988 98.333 4.36069 98.5206 4.04986 98.6801C1.63864 99.8901 0.92281 102.967 2.67471 104.571C3.24926 105.096 3.98393 105.443 5.87712 106.081C7.68554 106.691 8.02461 106.841 8.41079 107.197C8.93824 107.694 8.618 108.436 7.74205 108.698C7.15808 108.876 6.10317 108.839 5.43443 108.614C4.66209 108.36 4.10638 108.032 3.51299 107.469L3.03263 107.019L2.33564 107.891C1.94946 108.37 1.52562 108.914 1.38433 109.102L1.12061 109.449L1.6198 109.889C2.57111 110.743 3.69195 111.353 4.85047 111.662C7.62902 112.403 10.5677 111.306 11.6509 109.111C11.9805 108.454 12.0088 108.332 12.0088 107.601C12.0088 106.578 11.7356 105.931 10.9915 105.209C10.304 104.543 9.32441 104.064 7.24285 103.38C6.28213 103.061 5.37792 102.704 5.22722 102.582C4.60558 102.085 5.11419 101.25 6.18794 101.016C7.04505 100.819 8.47672 101.231 9.39976 101.935C9.57872 102.066 9.74826 102.132 9.79535 102.094C9.84245 102.048 10.238 101.55 10.6807 100.978L11.4907 99.9464L11.1422 99.5993C10.7278 99.1772 9.80477 98.6801 8.90057 98.3987C8.04345 98.1266 5.98073 98.0516 5.16129 98.258Z" fill="black"/>
<path d="M13.5157 98.2298C13.4874 98.2955 13.478 101.344 13.4874 105.012L13.5157 111.672L18.2534 111.7L22.9816 111.719V110.218V108.717H19.6379H16.2942V107.544V106.372H18.9315H21.5688V105.012V103.652H18.9315H16.2942V102.526V101.4H19.6379H22.9816V99.7588V98.1173H18.2722C14.5894 98.1173 13.5439 98.1454 13.5157 98.2298Z" fill="black"/>
<path d="M24.6489 98.1829C24.6113 98.2111 24.583 101.278 24.583 104.984V111.719H29.104H33.6251V110.218V108.717H30.6111H27.597V103.417V98.1173H26.156C25.3554 98.1173 24.6772 98.1454 24.6489 98.1829Z" fill="black"/>
<path d="M35.0381 104.918V111.719H36.498H37.9579V109.186V106.653H40.501H43.0441V105.152V103.652H40.501H37.9485L37.9768 102.498L38.005 101.353L41.1415 101.325L44.2685 101.307L44.2497 99.7307L44.2215 98.1642L39.6345 98.136L35.0381 98.1173V104.918Z" fill="black"/>
<path d="M45.2104 104.918V111.719H49.7786H54.3467V110.218V108.717H51.2385H48.1303V107.544V106.372H50.5792H53.0281V105.012V103.652H50.5792H48.1303V102.479V101.307H51.2385H54.3467V99.7119V98.1173H49.7786H45.2104V104.918Z" fill="black"/>
<path d="M54.9116 98.2392C54.9116 98.3049 55.8818 99.8338 57.0685 101.635L59.2254 104.909L58.9335 105.34C58.7733 105.575 57.8032 106.972 56.7766 108.454C55.3543 110.509 54.9116 111.212 54.9116 111.437V111.719H56.4469H57.9727L59.4327 109.608C60.2333 108.445 60.8926 107.497 60.902 107.497C60.9114 107.497 61.5425 108.445 62.3054 109.608L63.6994 111.719H65.5172H67.3445V111.503C67.3445 111.39 66.3555 109.88 65.0745 108.032C63.6994 106.044 62.8423 104.73 62.88 104.655C62.9176 104.599 63.916 103.145 65.1028 101.428C66.2802 99.7213 67.2503 98.2767 67.2503 98.2204C67.2503 98.1454 66.7417 98.1173 65.5832 98.136L63.916 98.1642L62.6068 100.04C61.891 101.072 61.2599 101.991 61.194 102.094C61.0904 102.245 60.9208 102.048 59.6399 100.19L58.1988 98.1173H56.5599C55.2884 98.1173 54.9116 98.1454 54.9116 98.2392Z" fill="black"/>
<path d="M68.0039 104.909V111.719H69.5109H71.0179V109.983V108.248H72.6945C73.8907 108.248 74.5217 108.21 74.9268 108.107C77.0837 107.544 78.666 105.518 78.6754 103.276C78.6849 101.044 77.3662 99.1866 75.2187 98.408C74.5594 98.1735 74.5217 98.1642 71.2817 98.136L68.0039 98.0985V104.909ZM74.1732 101.41C74.6724 101.55 75.3883 102.263 75.5296 102.76C75.765 103.605 75.5955 104.261 74.9833 104.871C74.4181 105.434 74.0414 105.528 72.346 105.528H71.0179V103.417V101.307H72.4119C73.1748 101.307 73.966 101.353 74.1732 101.41Z" fill="black"/>
<path d="M85.0707 98.2111C82.2921 98.5863 79.9939 100.631 79.2969 103.351C79.0521 104.299 79.0521 105.725 79.2969 106.672C79.8809 108.933 81.5481 110.743 83.7332 111.484C86.2386 112.328 88.8947 111.728 90.7597 109.889C91.5885 109.073 92.0689 108.342 92.4268 107.338C93.0955 105.49 92.9825 103.755 92.0783 101.916C91.4284 100.603 90.3358 99.5337 88.9324 98.8302C87.9058 98.3142 86.2575 98.0516 85.0707 98.2111ZM87.3406 101.588C88.0941 101.869 88.9136 102.648 89.3092 103.445C89.6012 104.027 89.62 104.139 89.62 105.012C89.62 105.884 89.6012 105.997 89.3092 106.578C87.6986 109.833 83.0174 109.205 82.311 105.631C81.9531 103.802 83.234 101.879 85.1178 101.4C85.6735 101.269 86.7284 101.353 87.3406 101.588Z" fill="black"/>
</g>
<defs>
<clipPath id="clip0_44_660">
<rect width="94" height="112" fill="white"/>
</clipPath>
</defs>
</svg>
